<mxfile host="www.draw.io" modified="2019-10-26T20:42:05.998Z" agent="Mozilla/5.0 (Windows NT 10.0; Win64; x64) AppleWebKit/537.36 (KHTML, like Gecko) Chrome/77.0.3865.120 Safari/537.36" etag="FuW7S2gghqYzwOGDNvFD" version="12.1.7" type="github" pages="1">
  <diagram id="w4a8VLqb3H1M8Bm7Ij45" name="Page-1">
    <mxGraphModel dx="1422" dy="745" grid="1" gridSize="10" guides="1" tooltips="1" connect="1" arrows="1" fold="1" page="1" pageScale="1" pageWidth="1100" pageHeight="850" math="0" shadow="0">
      <root>
        <mxCell id="0"/>
        <mxCell id="1" parent="0"/>
        <mxCell id="IB-f_c3pBvOLBN5dyNoH-2" value="" style="rounded=0;whiteSpace=wrap;html=1;fillColor=#f5f5f5;strokeColor=#666666;fontColor=#333333;" vertex="1" parent="1">
          <mxGeometry x="220" y="255" width="660" height="340" as="geometry"/>
        </mxCell>
        <mxCell id="IB-f_c3pBvOLBN5dyNoH-3" value="&lt;b&gt;Single Board Computer&lt;/b&gt;" style="text;html=1;strokeColor=none;fillColor=none;align=center;verticalAlign=middle;whiteSpace=wrap;rounded=0;fontSize=14;" vertex="1" parent="1">
          <mxGeometry x="697" y="570" width="200" height="20" as="geometry"/>
        </mxCell>
        <mxCell id="IB-f_c3pBvOLBN5dyNoH-4" value="Tether Data Bridge ROS Node" style="rounded=1;whiteSpace=wrap;html=1;fontSize=14;fillColor=#d5e8d4;strokeColor=#82b366;fontStyle=1" vertex="1" parent="1">
          <mxGeometry x="260" y="290" width="130" height="100" as="geometry"/>
        </mxCell>
        <mxCell id="IB-f_c3pBvOLBN5dyNoH-5" value="Tether Interface Board" style="rounded=1;whiteSpace=wrap;html=1;fontSize=14;fillColor=#fff2cc;strokeColor=#d6b656;fontStyle=1" vertex="1" parent="1">
          <mxGeometry x="260" y="130" width="130" height="100" as="geometry"/>
        </mxCell>
        <mxCell id="IB-f_c3pBvOLBN5dyNoH-6" value="" style="endArrow=classic;startArrow=classic;html=1;fontSize=14;entryX=0.5;entryY=1;entryDx=0;entryDy=0;exitX=0.158;exitY=0.006;exitDx=0;exitDy=0;exitPerimeter=0;" edge="1" parent="1" source="IB-f_c3pBvOLBN5dyNoH-2" target="IB-f_c3pBvOLBN5dyNoH-5">
          <mxGeometry width="50" height="50" relative="1" as="geometry">
            <mxPoint x="100" y="430" as="sourcePoint"/>
            <mxPoint x="150" y="380" as="targetPoint"/>
          </mxGeometry>
        </mxCell>
        <mxCell id="IB-f_c3pBvOLBN5dyNoH-7" value="" style="endArrow=classic;startArrow=classic;html=1;fontSize=14;exitX=0.5;exitY=0;exitDx=0;exitDy=0;" edge="1" parent="1" source="IB-f_c3pBvOLBN5dyNoH-4">
          <mxGeometry width="50" height="50" relative="1" as="geometry">
            <mxPoint x="334.28" y="267.03999999999996" as="sourcePoint"/>
            <mxPoint x="325" y="250" as="targetPoint"/>
          </mxGeometry>
        </mxCell>
        <mxCell id="IB-f_c3pBvOLBN5dyNoH-8" value="Ethernet Connection" style="text;html=1;strokeColor=none;fillColor=none;align=center;verticalAlign=middle;whiteSpace=wrap;rounded=0;fontSize=14;fontStyle=1" vertex="1" parent="1">
          <mxGeometry x="310" y="235" width="190" height="20" as="geometry"/>
        </mxCell>
        <mxCell id="IB-f_c3pBvOLBN5dyNoH-9" value="UDP/TCP Connection" style="text;html=1;strokeColor=none;fillColor=none;align=center;verticalAlign=middle;whiteSpace=wrap;rounded=0;fontSize=14;fontStyle=1" vertex="1" parent="1">
          <mxGeometry x="310" y="262.5" width="190" height="20" as="geometry"/>
        </mxCell>
        <mxCell id="IB-f_c3pBvOLBN5dyNoH-18" style="edgeStyle=orthogonalEdgeStyle;rounded=0;orthogonalLoop=1;jettySize=auto;html=1;exitX=0;exitY=0.5;exitDx=0;exitDy=0;entryX=1;entryY=0.5;entryDx=0;entryDy=0;fontSize=14;" edge="1" parent="1" source="IB-f_c3pBvOLBN5dyNoH-10" target="IB-f_c3pBvOLBN5dyNoH-4">
          <mxGeometry relative="1" as="geometry">
            <Array as="points">
              <mxPoint x="500" y="340"/>
            </Array>
          </mxGeometry>
        </mxCell>
        <mxCell id="IB-f_c3pBvOLBN5dyNoH-10" value="Image Acquisition and Compression ROS Node" style="rounded=1;whiteSpace=wrap;html=1;fontSize=14;fillColor=#d5e8d4;strokeColor=#82b366;fontStyle=1" vertex="1" parent="1">
          <mxGeometry x="500" y="300" width="140" height="100" as="geometry"/>
        </mxCell>
        <mxCell id="IB-f_c3pBvOLBN5dyNoH-13" style="edgeStyle=orthogonalEdgeStyle;rounded=0;orthogonalLoop=1;jettySize=auto;html=1;exitX=0;exitY=0.5;exitDx=0;exitDy=0;entryX=1;entryY=0.5;entryDx=0;entryDy=0;fontSize=14;" edge="1" parent="1" source="IB-f_c3pBvOLBN5dyNoH-11" target="IB-f_c3pBvOLBN5dyNoH-12">
          <mxGeometry relative="1" as="geometry"/>
        </mxCell>
        <mxCell id="IB-f_c3pBvOLBN5dyNoH-11" value="USB Camera" style="rounded=1;whiteSpace=wrap;html=1;fontSize=14;fillColor=#fff2cc;strokeColor=#d6b656;fontStyle=1" vertex="1" parent="1">
          <mxGeometry x="970" y="305" width="110" height="90" as="geometry"/>
        </mxCell>
        <mxCell id="IB-f_c3pBvOLBN5dyNoH-15" style="edgeStyle=orthogonalEdgeStyle;rounded=0;orthogonalLoop=1;jettySize=auto;html=1;exitX=0;exitY=0.5;exitDx=0;exitDy=0;entryX=1;entryY=0.5;entryDx=0;entryDy=0;fontSize=14;" edge="1" parent="1" source="IB-f_c3pBvOLBN5dyNoH-12" target="IB-f_c3pBvOLBN5dyNoH-10">
          <mxGeometry relative="1" as="geometry"/>
        </mxCell>
        <mxCell id="IB-f_c3pBvOLBN5dyNoH-12" value="Camera Driver" style="rounded=1;whiteSpace=wrap;html=1;fontSize=14;fillColor=#d5e8d4;strokeColor=#82b366;fontStyle=1" vertex="1" parent="1">
          <mxGeometry x="800" y="300" width="60" height="100" as="geometry"/>
        </mxCell>
        <mxCell id="IB-f_c3pBvOLBN5dyNoH-14" value="USB Connection" style="text;html=1;strokeColor=none;fillColor=none;align=center;verticalAlign=middle;whiteSpace=wrap;rounded=0;fontSize=14;fontStyle=1" vertex="1" parent="1">
          <mxGeometry x="900" y="320" width="50" height="20" as="geometry"/>
        </mxCell>
        <mxCell id="IB-f_c3pBvOLBN5dyNoH-16" value="OS Provided Driver-Application Communication" style="text;html=1;strokeColor=none;fillColor=none;align=center;verticalAlign=middle;whiteSpace=wrap;rounded=0;fontSize=14;fontStyle=1" vertex="1" parent="1">
          <mxGeometry x="695" y="300" width="50" height="20" as="geometry"/>
        </mxCell>
        <mxCell id="IB-f_c3pBvOLBN5dyNoH-17" style="edgeStyle=orthogonalEdgeStyle;rounded=0;orthogonalLoop=1;jettySize=auto;html=1;exitX=0.5;exitY=1;exitDx=0;exitDy=0;fontSize=14;" edge="1" parent="1" source="IB-f_c3pBvOLBN5dyNoH-16" target="IB-f_c3pBvOLBN5dyNoH-16">
          <mxGeometry relative="1" as="geometry"/>
        </mxCell>
        <mxCell id="IB-f_c3pBvOLBN5dyNoH-19" value="ros_image rostopic" style="text;html=1;strokeColor=none;fillColor=none;align=center;verticalAlign=middle;whiteSpace=wrap;rounded=0;fontSize=14;fontStyle=1" vertex="1" parent="1">
          <mxGeometry x="405" y="350" width="70" height="20" as="geometry"/>
        </mxCell>
        <mxCell id="IB-f_c3pBvOLBN5dyNoH-20" value="microcontroller Serial Bridge ROS Node" style="rounded=1;whiteSpace=wrap;html=1;fontSize=14;fillColor=#d5e8d4;strokeColor=#82b366;fontStyle=1" vertex="1" parent="1">
          <mxGeometry x="265" y="460" width="120" height="100" as="geometry"/>
        </mxCell>
        <mxCell id="IB-f_c3pBvOLBN5dyNoH-22" value="" style="endArrow=classic;startArrow=classic;html=1;fontSize=14;entryX=0.5;entryY=1;entryDx=0;entryDy=0;" edge="1" parent="1" source="IB-f_c3pBvOLBN5dyNoH-20" target="IB-f_c3pBvOLBN5dyNoH-4">
          <mxGeometry width="50" height="50" relative="1" as="geometry">
            <mxPoint x="90" y="510" as="sourcePoint"/>
            <mxPoint x="140" y="460" as="targetPoint"/>
          </mxGeometry>
        </mxCell>
        <mxCell id="IB-f_c3pBvOLBN5dyNoH-23" value="Sensor Data, light control and Twist rostopics" style="text;html=1;strokeColor=none;fillColor=none;align=center;verticalAlign=middle;whiteSpace=wrap;rounded=0;fontSize=14;fontStyle=1" vertex="1" parent="1">
          <mxGeometry x="325" y="415" width="120" height="20" as="geometry"/>
        </mxCell>
        <mxCell id="IB-f_c3pBvOLBN5dyNoH-24" value="USB Serial Drivers" style="rounded=1;whiteSpace=wrap;html=1;fontSize=14;fillColor=#d5e8d4;strokeColor=#82b366;fontStyle=1" vertex="1" parent="1">
          <mxGeometry x="500" y="460" width="120" height="100" as="geometry"/>
        </mxCell>
        <mxCell id="IB-f_c3pBvOLBN5dyNoH-25" value="" style="endArrow=classic;startArrow=classic;html=1;fontSize=14;entryX=0;entryY=0.5;entryDx=0;entryDy=0;exitX=1;exitY=0.5;exitDx=0;exitDy=0;" edge="1" parent="1" source="IB-f_c3pBvOLBN5dyNoH-20" target="IB-f_c3pBvOLBN5dyNoH-24">
          <mxGeometry width="50" height="50" relative="1" as="geometry">
            <mxPoint x="470" y="700" as="sourcePoint"/>
            <mxPoint x="470" y="630" as="targetPoint"/>
          </mxGeometry>
        </mxCell>
        <mxCell id="IB-f_c3pBvOLBN5dyNoH-28" value="microcontroller" style="rounded=1;whiteSpace=wrap;html=1;fontSize=14;fillColor=#fff2cc;strokeColor=#d6b656;fontStyle=1" vertex="1" parent="1">
          <mxGeometry x="505" y="660" width="110" height="90" as="geometry"/>
        </mxCell>
        <mxCell id="IB-f_c3pBvOLBN5dyNoH-29" value="" style="endArrow=classic;startArrow=classic;html=1;fontSize=14;entryX=0.5;entryY=1;entryDx=0;entryDy=0;exitX=0.5;exitY=0;exitDx=0;exitDy=0;" edge="1" parent="1" source="IB-f_c3pBvOLBN5dyNoH-28" target="IB-f_c3pBvOLBN5dyNoH-24">
          <mxGeometry width="50" height="50" relative="1" as="geometry">
            <mxPoint x="160" y="770" as="sourcePoint"/>
            <mxPoint x="210" y="720" as="targetPoint"/>
          </mxGeometry>
        </mxCell>
        <mxCell id="IB-f_c3pBvOLBN5dyNoH-30" value="USB Connection" style="text;html=1;strokeColor=none;fillColor=none;align=center;verticalAlign=middle;whiteSpace=wrap;rounded=0;fontSize=14;fontStyle=1" vertex="1" parent="1">
          <mxGeometry x="580" y="610" width="50" height="20" as="geometry"/>
        </mxCell>
        <mxCell id="IB-f_c3pBvOLBN5dyNoH-31" value="OS Provided Driver-Application Communication" style="text;html=1;strokeColor=none;fillColor=none;align=center;verticalAlign=middle;whiteSpace=wrap;rounded=0;fontSize=14;fontStyle=1" vertex="1" parent="1">
          <mxGeometry x="415" y="540" width="50" height="20" as="geometry"/>
        </mxCell>
      </root>
    </mxGraphModel>
  </diagram>
</mxfile>
